<?xml version="1.0" encoding="utf-8"?>
<!-- Generator: Adobe Illustrator 24.3.0, SVG Export Plug-In . SVG Version: 6.00 Build 0)  -->
<svg version="1.1" id="Layer_1" xmlns="http://www.w3.org/2000/svg" xmlns:xlink="http://www.w3.org/1999/xlink" x="0px" y="0px"
	 viewBox="0 0 44 44" style="enable-background:new 0 0 44 44;" xml:space="preserve">
<style type="text/css">
	.st0{fill:url(#SVGID_1_);}
	.st1{display:none;}
	.st2{display:inline;fill:#FFFFFF;}
	.st3{fill:#FFFFFF;}
</style>
<g>
	<linearGradient id="SVGID_1_" gradientUnits="userSpaceOnUse" x1="22" y1="44" x2="22" y2="-9.094947e-13">
		<stop  offset="9.590021e-07" style="stop-color:#19011F"/>
		<stop  offset="1" style="stop-color:#481353"/>
	</linearGradient>
	<path class="st0" d="M40.4,44H3.6c-2,0-3.6-1.6-3.6-3.6V3.6C0,1.6,1.6,0,3.6,0h36.8c2,0,3.6,1.6,3.6,3.6v36.8
		C44,42.4,42.4,44,40.4,44z"/>
</g>
<g class="st1">
	<path class="st2" d="M25.1,34.7c0,0.4-0.1,0.5-0.5,0.5c-1.9,0-3.8,0-5.8,0c-0.4,0-0.5-0.1-0.5-0.5c0-2,0-4.1,0-6.1
		c0-1.9,0-3.9,0-5.8c0-1.8,1.4-3,2.9-3.3c1.7-0.2,3.3,0.7,3.8,2.2c0.1,0.3,0.1,0.7,0.1,1C25.1,26.7,25.1,30.7,25.1,34.7z"/>
	<path class="st2" d="M24,16.4c-0.3,0.3-0.7,0.6-1.1,0.8c-0.1,0.1-0.2,0.1-0.4,0.2c0.2-0.4,0.4-0.7,0.5-1c0.1-0.4,0.2-0.8,0.3-1.2
		c0-0.4-0.2-0.7-0.6-0.8c-0.5-0.1-1.1-0.1-1.6,0c-0.5,0.1-0.8,0.5-0.6,1c0.1,0.5,0.4,1,0.6,1.5c0,0.1,0.1,0.2,0.2,0.4
		c0,0-0.1,0.1-0.1,0.1c-0.1,0-0.2,0-0.3-0.1c-0.4-0.3-0.9-0.7-1.3-1.1c-0.7-0.7-0.6-1.5-0.4-2.4c0.3-1.3,0.8-2.6,1.7-3.7
		c0.3-0.4,0.8-0.8,1.3-1c0.4-0.3,0.8-0.1,0.9,0.4c0.2,0.5,0.3,1,0.4,1.5c0.3,1,0.6,2,0.9,3c0.1,0.3,0.2,0.7,0.2,1
		C24.6,15.4,24.5,16,24,16.4z"/>
</g>
<g>
	<path class="st3" d="M34.4,22c0.1,1.2-0.7,2-1.7,2.2c-0.3,0.1-0.6,0.1-0.8-0.2c-0.6-0.8-1.6-0.6-2.2,0c-0.4,0.4-0.9,0.7-1.5,0.7
		c-0.5,0-1-0.2-1.4-0.5c-0.7-0.7-1.4-0.8-2.3-0.4c-0.5,0.2-1.2,0.3-1.7,0.4c-0.4,0.1-0.9,0-1.3,0c-0.8,0.1-1.6-0.2-2.3-0.5
		c-0.7-0.4-1.2-0.3-1.9,0.4c-0.5,0.5-1,0.8-1.7,0.6c-0.5-0.1-0.9-0.4-1.3-0.6c-0.1-0.1-0.2-0.2-0.3-0.3c-0.8-0.5-1-0.5-1.7,0.1
		c-0.5,0.4-1.2,0.4-1.8-0.1c-0.8-0.7-0.8-1.4-0.6-2.4c0.2-0.8,1.1-1.4,2-1.4h20.5C33.5,19.9,34.3,20.8,34.4,22z"/>
</g>
<g class="st1">
	<path class="st2" d="M34.9,25.5c0,0.9-0.4,1.5-1.2,1.9c-1.3,0.6-2.7,0.8-4.1,1c-4.1,0.5-8.1,0.5-12.2,0.2c-2-0.1-4-0.3-5.9-0.9
		c-0.3-0.1-0.6-0.2-0.9-0.3c-0.9-0.4-1.4-1-1.4-2c0-0.2,0-0.4,0-0.5c0-2.3,0-4.5,0-6.8c0-1.8,0.3-2.2,2.1-2.5c1.5-0.2,3-0.3,4.5-0.4
		c2.2-0.1,4.3-0.1,7.6-0.2c2,0.1,5.1,0.2,8.2,0.3c0.4,0,0.9,0.1,1.3,0.2c0.8,0.1,1.3,0.6,1.6,1.3c0.2,0.7,0.4,1.5,0.4,2.2
		C34.9,21.3,34.8,23.4,34.9,25.5z"/>
</g>
</svg>
